<svg xmlns="http://www.w3.org/2000/svg" xmlns:xlink="http://www.w3.org/1999/xlink" width="300" zoomAndPan="magnify" viewBox="0 0 224.87999 225" height="300" preserveAspectRatio="xMidYMid meet" version="1.2"><defs><clipPath id="0e02d23cff"><path d="M 0 35.757812 L 224 35.757812 L 224 189.425781 L 0 189.425781 Z M 0 35.757812 "/></clipPath><clipPath id="818309f385"><path d="M 2 52 L 219 52 L 219 189.425781 L 2 189.425781 Z M 2 52 "/></clipPath></defs><g id="71896065fd"><g clip-rule="nonzero" clip-path="url(#0e02d23cff)"><path style=" stroke:none;fill-rule:nonzero;fill:#f0c488;fill-opacity:1;" d="M 89.515625 35.796875 L 89.496094 35.796875 C 88.394531 36.136719 87.285156 36.757812 86.175781 37.671875 C 85.445312 38.269531 85.097656 38.898438 85.085938 39.550781 C 85.082031 39.777344 85.308594 40.25 85.769531 40.984375 C 85.828125 41.078125 86.414062 41.746094 87.558594 42.972656 L 89.328125 46.171875 C 89.867188 46.945312 90.589844 47.324219 91.488281 47.367188 C 91.902344 47.386719 92.203125 47.414062 92.402344 47.390625 C 92.4375 47.386719 92.464844 47.378906 92.496094 47.375 C 92.515625 47.371094 92.542969 47.371094 92.574219 47.367188 C 92.929688 47.324219 93.832031 47.125 95.300781 46.890625 C 95.710938 46.824219 96.136719 46.882812 96.570312 46.96875 C 97.171875 47.089844 97.71875 48.273438 98.066406 48.105469 C 98.734375 47.824219 98.074219 46.65625 98.074219 46.65625 C 96.695312 44.210938 96.125 42.421875 95.632812 41.652344 L 94.40625 40.195312 L 93.828125 39.074219 C 92.867188 37.628906 92.296875 37.34375 92.136719 37.183594 C 91.84375 36.894531 91.261719 36.511719 90.386719 36.039062 C 90.035156 35.855469 89.75 35.769531 89.515625 35.796875 Z M 146.0625 44.3125 C 145.441406 44.402344 145.027344 44.550781 144.121094 45.359375 C 142.28125 46.996094 140.507812 49.113281 140.058594 49.753906 C 139.605469 50.398438 139.308594 50.980469 139.171875 51.507812 L 141.328125 51.601562 C 141.671875 51.390625 142.074219 51.1875 142.554688 51.027344 C 143.046875 50.859375 143.578125 50.71875 144.128906 50.578125 C 145.113281 50.328125 146.648438 50 146.914062 49.828125 C 147.183594 49.660156 147.488281 49.222656 147.660156 48.972656 C 147.828125 48.71875 148.503906 47.253906 148.59375 46.984375 C 148.746094 46.5 148.789062 45.972656 148.695312 45.414062 C 148.667969 45.242188 148.59375 45.097656 148.488281 44.992188 C 148.277344 44.789062 148.050781 44.652344 147.839844 44.542969 C 147.421875 44.320312 147.113281 44.195312 146.507812 44.246094 Z M 112.457031 45.808594 C 111.972656 45.863281 109.042969 46.894531 107.992188 47.585938 C 106.945312 48.273438 106.28125 48.792969 105.449219 49.574219 C 104.617188 50.359375 104.125 51.058594 103.90625 51.578125 C 103.597656 52.320312 103.449219 53.304688 103.414062 54.507812 L 104.734375 55.511719 C 105.140625 55.539062 105.613281 55.625 106.136719 55.808594 C 107.105469 56.144531 107.835938 56.507812 108.394531 56.78125 C 108.597656 56.878906 108.785156 56.882812 108.925781 56.902344 C 109.375 56.96875 109.886719 56.976562 110.453125 56.910156 C 110.488281 56.90625 110.519531 56.90625 110.554688 56.898438 C 111.746094 56.625 112.515625 56.464844 112.859375 56.425781 C 112.898438 56.417969 112.933594 56.417969 112.960938 56.414062 L 116.722656 56.484375 C 116.734375 56.480469 116.75 56.480469 116.765625 56.476562 C 117.445312 56.398438 118.121094 56.191406 118.75 55.789062 C 119.238281 55.476562 119.601562 54.902344 119.902344 54.136719 C 119.984375 53.929688 120.089844 53.601562 120.199219 53.148438 C 120.222656 53.042969 120.113281 52.414062 120.160156 51.261719 C 120.203125 50.3125 120.394531 49.5 120.429688 48.792969 C 120.445312 48.457031 120.402344 48.101562 120.277344 47.730469 C 120.121094 47.265625 119.828125 46.984375 119.410156 46.886719 C 119.273438 46.851562 119.109375 46.820312 118.925781 46.839844 C 117.296875 46.992188 116.308594 47.058594 115.945312 46.984375 C 115.941406 46.984375 115.933594 46.988281 115.925781 46.988281 C 115.726562 47.011719 114.9375 46.613281 113.484375 45.957031 C 113.078125 45.773438 112.890625 45.757812 112.636719 45.785156 Z M 134.710938 42.84375 C 134.640625 42.832031 134.609375 42.84375 134.433594 42.914062 C 134.253906 42.980469 134.121094 43.03125 133.902344 43.25 C 133.710938 43.4375 133.589844 43.683594 133.484375 43.929688 C 133.339844 44.273438 133.28125 44.488281 133.269531 44.566406 C 133.222656 44.871094 133.148438 45.539062 132.992188 46.566406 C 132.953125 46.839844 132.816406 47.078125 132.679688 47.300781 C 132.503906 47.582031 132.28125 47.925781 131.960938 48.292969 C 130.394531 50.066406 129.382812 50.945312 128.824219 51.886719 C 128.261719 52.828125 128.371094 53.527344 128.476562 54.058594 C 128.617188 54.765625 129.582031 57.824219 129.582031 57.824219 L 130.332031 56.9375 C 132.253906 56.011719 133.742188 55.199219 134.5625 54.277344 C 135.386719 53.351562 135.386719 53.128906 135.550781 52.667969 C 135.714844 52.21875 135.761719 51.671875 135.742188 51.019531 C 135.722656 50.296875 135.40625 49.335938 135.257812 48.460938 C 135.183594 48.035156 135.164062 47.730469 135.15625 47.550781 C 135.144531 47.355469 135.25 46.402344 135.460938 44.683594 C 135.484375 44.472656 135.480469 44.265625 135.453125 44.066406 C 135.328125 43.226562 134.917969 42.898438 134.792969 42.863281 Z M 109.78125 61.070312 L 109.914062 61.292969 C 110.304688 61.9375 110.578125 62.578125 110.730469 63.210938 L 110.792969 63.53125 C 110.851562 64.359375 110.894531 64.84375 110.921875 64.984375 L 111.007812 65.40625 C 111.097656 65.796875 111.335938 66.257812 111.691406 66.8125 C 111.785156 66.957031 112.003906 67.230469 112.453125 67.492188 C 113.75 68.25 114.496094 68.613281 114.617188 68.710938 L 116.363281 70.339844 C 116.390625 70.359375 116.472656 70.417969 116.621094 70.496094 C 116.992188 70.695312 117.363281 70.765625 117.730469 70.722656 C 118.363281 70.652344 118.984375 70.222656 119.59375 69.4375 C 119.855469 68.753906 119.980469 68.363281 119.972656 68.265625 C 120.023438 68.03125 120.039062 67.808594 120.042969 67.605469 C 120.050781 67.226562 119.929688 66.855469 119.695312 66.464844 C 119.511719 66.160156 118.847656 65.566406 117.914062 64.480469 C 117.011719 63.429688 116.660156 62.792969 116.605469 62.769531 C 116.3125 62.4375 115.980469 62.207031 115.628906 62.035156 C 115.117188 61.789062 114.574219 61.617188 113.988281 61.515625 C 113.5 61.429688 112.808594 61.421875 111.902344 61.527344 C 111.878906 61.53125 111.855469 61.53125 111.832031 61.535156 Z M 124.964844 83.695312 L 124.9375 83.699219 C 124.761719 83.722656 124.601562 83.871094 124.425781 84.121094 C 123.789062 85.015625 123.3125 85.703125 123.019531 86.207031 C 122.695312 86.761719 122.460938 87.210938 122.34375 87.570312 C 122.238281 87.902344 122.203125 88.183594 122.214844 88.398438 C 122.226562 88.578125 122.25 88.785156 122.308594 89.007812 C 122.425781 89.472656 122.554688 89.871094 122.664062 90.214844 C 122.796875 90.644531 123.023438 91.199219 123.378906 91.855469 C 123.789062 92.617188 124.453125 93.308594 125.355469 93.933594 C 125.742188 91.28125 125.960938 89.878906 126.007812 89.730469 L 126.140625 88.660156 L 126.210938 87.6875 L 126.214844 86.804688 L 126.15625 86.019531 L 126.03125 85.324219 L 125.839844 84.726562 L 125.585938 84.21875 L 125.265625 83.808594 C 125.199219 83.730469 125.097656 83.691406 124.964844 83.695312 Z M 107.5 87.488281 L 107.441406 87.496094 C 107.144531 87.558594 106.960938 87.730469 106.878906 88.003906 C 106.191406 90.371094 105.84375 91.71875 105.804688 92.050781 C 105.769531 92.355469 105.742188 92.515625 105.742188 92.539062 C 105.734375 92.945312 105.734375 93.324219 105.761719 93.671875 C 105.789062 94.019531 105.835938 94.339844 105.90625 94.628906 L 106.023438 95.042969 C 106.3125 95.855469 106.738281 96.328125 107.28125 96.515625 C 107.476562 96.582031 108.4375 96.535156 110.191406 96.332031 C 110.296875 96.320312 110.40625 96.304688 110.515625 96.292969 C 110.703125 96.269531 110.851562 96.214844 110.96875 96.121094 L 111.113281 95.953125 L 111.210938 95.734375 L 111.253906 95.460938 C 111.265625 95.261719 111.246094 95.023438 111.1875 94.753906 C 111.011719 93.945312 110.734375 93.308594 110.378906 92.832031 C 110.160156 92.539062 109.644531 92.183594 108.8125 91.785156 L 109.164062 88.414062 C 108.929688 88.125 108.667969 87.859375 108.347656 87.667969 C 108.070312 87.503906 107.777344 87.464844 107.5 87.488281 Z M 127.632812 98.066406 L 126.886719 98.460938 C 126.601562 98.597656 125.949219 98.964844 124.953125 99.601562 C 124.191406 100.085938 123.582031 100.570312 123.101562 101.03125 L 122.769531 101.371094 C 122.394531 102.097656 122.1875 102.605469 122.101562 102.875 C 121.824219 103.714844 121.523438 104.757812 121.242188 106.027344 C 121.105469 106.660156 120.980469 107.355469 120.832031 108.09375 C 120.816406 108.164062 120.789062 108.304688 120.835938 108.523438 C 120.894531 108.769531 121.113281 108.925781 121.457031 108.996094 C 121.535156 108.992188 121.617188 108.980469 121.691406 108.972656 C 122.320312 108.898438 122.84375 108.753906 123.265625 108.53125 C 123.449219 108.496094 123.710938 108.15625 124.046875 107.523438 L 124.214844 107.1875 C 125.148438 105.070312 125.683594 103.894531 125.808594 103.65625 C 126.144531 103.003906 126.648438 102.09375 127.347656 100.945312 Z M 108.351562 108.933594 L 107.839844 109.011719 C 106.535156 109.21875 105.714844 109.441406 105.382812 109.6875 C 105.027344 109.953125 104.742188 110.242188 104.527344 110.535156 C 104.421875 110.683594 104.328125 110.832031 104.257812 110.988281 C 104.183594 111.140625 104.128906 111.296875 104.09375 111.457031 L 104.050781 111.695312 C 104.035156 111.992188 104.097656 112.269531 104.238281 112.539062 C 104.304688 112.667969 104.363281 112.765625 104.414062 112.839844 L 105.140625 113.816406 C 105.25 113.972656 105.410156 114.207031 105.578125 114.550781 C 106.125 115.675781 106.480469 116.667969 106.773438 117.476562 C 106.859375 117.710938 106.96875 117.808594 107.019531 117.804688 C 107.019531 117.804688 107.023438 117.804688 107.023438 117.804688 C 107.652344 117.585938 108.042969 117.046875 108.191406 116.183594 C 108.230469 115.949219 108.234375 115.613281 108.21875 115.175781 C 108.214844 115.023438 108.15625 114.511719 108.039062 113.636719 C 108.03125 113.570312 108.03125 113.492188 108.035156 113.402344 Z M 116.480469 113.246094 L 115.84375 116.800781 L 115.992188 117.484375 L 116.175781 118.128906 L 116.394531 118.730469 L 116.648438 119.289062 L 116.933594 119.808594 C 117.339844 120.476562 117.824219 121.050781 118.433594 121.476562 C 118.683594 121.652344 118.917969 121.699219 119.09375 121.679688 C 119.222656 121.664062 119.335938 121.605469 119.414062 121.492188 C 119.757812 120.988281 120.011719 120.320312 120.183594 119.488281 C 120.25 119.179688 120.261719 118.886719 120.234375 118.609375 C 120.21875 118.46875 120.195312 118.332031 120.15625 118.203125 C 120.121094 118.070312 120.070312 117.945312 120.011719 117.820312 L 119.914062 117.640625 C 119.800781 117.449219 119.671875 117.269531 119.527344 117.097656 L 117.722656 115.039062 Z M 122.421875 130.800781 L 121.949219 130.878906 C 120.683594 131.144531 119.308594 131.820312 117.980469 133.082031 C 117.339844 133.6875 117.011719 134.570312 116.859375 135.566406 C 116.746094 136.3125 116.746094 136.96875 116.808594 137.53125 C 116.835938 137.808594 117.070312 138.421875 117.34375 139.417969 C 117.441406 139.773438 117.46875 140.554688 117.632812 141.71875 C 117.75 142.574219 117.871094 143.207031 117.992188 143.613281 C 118.136719 144.089844 118.3125 144.351562 118.480469 144.4375 C 118.667969 144.53125 118.878906 144.582031 119.125 144.550781 C 119.167969 144.546875 119.214844 144.539062 119.261719 144.53125 C 119.617188 144.460938 120.046875 144.289062 120.554688 144.003906 L 121.148438 143.546875 C 121.527344 143.230469 121.871094 142.894531 122.183594 142.535156 C 123.125 141.460938 123.765625 140.195312 124.121094 138.734375 C 124.234375 138.261719 124.25 137.808594 124.152344 137.367188 L 124.15625 137.367188 C 124.21875 137.359375 123.753906 136.097656 122.757812 133.574219 L 122.554688 130.789062 Z M 99.519531 134.554688 C 99.652344 137.039062 99.722656 138.09375 99.722656 138.09375 C 99.796875 139.148438 99.898438 140.695312 100.03125 142.730469 C 100.078125 143.496094 100.238281 144.949219 100.382812 145.546875 C 100.53125 146.144531 100.824219 146.609375 100.933594 146.828125 C 101.148438 147.273438 101.425781 147.570312 101.726562 147.78125 C 102.011719 147.984375 102.71875 148.253906 103.894531 148.488281 C 104.847656 148.679688 105.632812 148.785156 106.25 148.855469 C 106.40625 148.875 106.535156 148.882812 106.640625 148.871094 C 106.734375 148.859375 106.808594 148.832031 106.859375 148.792969 C 107.207031 148.53125 107.703125 147.542969 108.359375 145.835938 C 108.917969 144.382812 109.246094 143.699219 109.179688 143.277344 C 109.109375 142.808594 109.097656 142.734375 109.054688 142.589844 C 109.007812 142.445312 108.941406 142.296875 108.726562 141.949219 C 108.550781 141.664062 108.292969 141.394531 107.976562 141.125 C 107.597656 140.792969 107.246094 140.546875 106.917969 140.367188 C 106.640625 140.21875 105.699219 139.824219 104.113281 139.125 C 103.773438 138.976562 103.480469 138.75 103.203125 138.523438 C 101.460938 137.117188 100.234375 135.792969 99.519531 134.554688 Z M 127.71875 143.269531 L 127.167969 144.21875 C 126.804688 144.605469 126.617188 144.863281 126.558594 144.964844 C 126.453125 145.15625 126.335938 145.34375 126.246094 145.554688 C 126.058594 145.972656 125.914062 146.441406 125.828125 146.960938 C 125.738281 147.503906 125.722656 148.007812 125.765625 148.46875 L 125.8125 148.808594 C 125.855469 149.027344 125.910156 149.238281 125.984375 149.441406 C 126.054688 149.640625 126.148438 149.832031 126.25 150.015625 C 126.410156 150.292969 126.585938 150.589844 126.847656 150.855469 C 127.214844 151.222656 127.949219 151.96875 129.035156 153.117188 C 129.484375 153.59375 129.980469 153.960938 130.492188 154.253906 C 130.886719 154.476562 131.242188 154.570312 131.558594 154.535156 C 131.964844 154.488281 132.292969 154.21875 132.578125 153.742188 C 132.605469 153.691406 132.6875 153.542969 132.769531 153.277344 C 132.804688 153.167969 132.820312 153.054688 132.832031 152.941406 C 132.851562 152.710938 132.839844 152.464844 132.785156 152.210938 C 132.71875 151.910156 132.636719 151.65625 132.523438 151.457031 C 131.875 150.296875 131.492188 149.5625 131.402344 149.234375 C 131.320312 148.945312 131.261719 148.613281 131.214844 148.242188 C 131.1875 148.03125 131.152344 147.3125 131.070312 146.085938 C 131.050781 145.824219 130.953125 145.601562 130.875 145.398438 C 130.804688 145.203125 130.628906 144.910156 130.210938 144.667969 C 128.789062 143.847656 127.933594 143.429688 127.71875 143.269531 Z M 96.90625 142.609375 C 96.414062 142.777344 95.867188 143.5 95.203125 144.222656 C 94.539062 144.949219 93.914062 145.191406 93.101562 145.921875 C 92.292969 146.65625 91.585938 147.136719 90.9375 147.820312 C 90.289062 148.507812 89.605469 149.253906 88.984375 150.171875 C 88.445312 150.964844 88.070312 151.621094 87.832031 152.132812 C 87.578125 152.675781 87.472656 153.425781 87.804688 154.339844 C 88.382812 155.945312 88.925781 157.445312 89.429688 158.863281 C 89.878906 160.128906 90.3125 160.90625 90.546875 161.261719 C 91.207031 162.257812 91.746094 162.824219 92.125 163.015625 C 92.363281 163.132812 92.625 163.253906 92.855469 163.28125 L 93.152344 163.261719 C 93.15625 163.261719 93.210938 163.230469 93.214844 163.230469 C 93.441406 163.203125 94.3125 162.703125 94.746094 162.257812 C 95.15625 161.839844 95.617188 161.25 96.132812 160.496094 C 97.402344 158.636719 98.140625 157.300781 98.429688 156.519531 C 98.839844 155.414062 98.972656 154.476562 98.753906 153.679688 L 98.632812 153.136719 C 97.625 151.132812 97.078125 149.90625 97.03125 149.457031 C 96.957031 148.757812 96.996094 148.136719 97.101562 147.597656 C 97.132812 147.4375 97.4375 146.851562 97.957031 145.804688 C 98.058594 145.601562 98.082031 145.421875 98.078125 145.300781 C 98.046875 144.21875 97.980469 143.675781 97.84375 143.195312 C 97.703125 142.710938 97.582031 142.386719 97.242188 142.476562 Z M 89.410156 51.765625 C 88.800781 51.839844 88.339844 52.160156 87.652344 52.585938 L 8.574219 101.191406 C 2.417969 118.523438 0.00390625 135.730469 0.964844 152.828125 C 1.277344 158.363281 1.628906 162.191406 2.644531 164.171875 C 3.660156 166.152344 9.335938 172.824219 11.078125 175.230469 C 12.023438 176.53125 12.859375 177.277344 14.941406 177.035156 C 17.335938 176.753906 21.386719 175.160156 29.152344 171.597656 L 79.210938 148.621094 C 85.28125 145.789062 89.484375 143.667969 91.808594 142.253906 C 94.035156 140.898438 96.671875 139.265625 96.984375 137.980469 C 99.453125 127.84375 99.230469 111.871094 102.417969 98.210938 C 105.605469 84.546875 105.136719 79.3125 110.105469 70.710938 C 110.820312 69.476562 109.019531 66.734375 105.976562 62.972656 L 98.332031 55.628906 C 94.363281 52.824219 91.726562 51.496094 89.886719 51.710938 Z M 145.40625 54.109375 C 143.613281 54.320312 140.882812 55.765625 137.816406 57.308594 L 130.753906 62.605469 C 127.183594 65.871094 125.308594 68.230469 125.515625 69.644531 C 127.171875 80.921875 127.910156 83.996094 129.027344 97.980469 C 130.144531 111.964844 127.546875 127.726562 128.480469 138.121094 C 128.597656 139.4375 130.960938 141.445312 132.957031 143.117188 C 135.050781 144.863281 138.890625 147.585938 144.46875 151.292969 L 190.550781 181.480469 C 199.808594 187.550781 203.394531 189.414062 205.53125 189.164062 C 206.472656 189.050781 207.136719 188.527344 207.878906 187.773438 C 209.960938 185.652344 216.566406 179.902344 217.863281 178.097656 C 219.164062 176.289062 220.082031 172.558594 221.214844 167.128906 C 224.710938 150.367188 224.886719 132.992188 221.375 114.933594 C 151.816406 55.410156 150.945312 54.847656 150.945312 54.847656 C 150.070312 54.285156 149.128906 53.574219 147.542969 53.761719 Z M 145.40625 54.109375 "/></g><g clip-rule="nonzero" clip-path="url(#818309f385)"><path style=" stroke:none;fill-rule:nonzero;fill:#3f290e;fill-opacity:1;" d="M 93.796875 52.84375 C 92.363281 58.140625 90.929688 62.929688 89.453125 66.261719 C 88.476562 68.460938 87.480469 70.027344 86.5625 71.46875 C 85.839844 72.609375 85.128906 73.71875 84.574219 74.96875 C 84.316406 75.554688 84.089844 76.171875 83.90625 76.84375 C 83.105469 79.753906 83.136719 83.644531 83.152344 87.5 C 83.160156 88.753906 83.164062 90.015625 83.144531 91.277344 C 83.070312 96.472656 82.574219 101.644531 82.074219 106.71875 L 82.074219 106.726562 C 81.574219 111.800781 81.082031 116.691406 80.566406 120.285156 C 80.097656 123.566406 79.613281 125.761719 79.125 127.898438 L 2.484375 163.839844 C 2.539062 163.953125 2.589844 164.066406 2.644531 164.171875 C 2.851562 164.574219 3.25 165.171875 3.769531 165.886719 L 80.667969 129.820312 C 81.003906 129.664062 81.246094 129.363281 81.328125 129.007812 C 81.867188 126.667969 82.414062 124.300781 82.941406 120.625 C 83.460938 116.96875 83.960938 112.019531 84.460938 106.957031 L 84.460938 106.953125 C 84.957031 101.886719 85.464844 96.625 85.542969 91.3125 C 85.5625 90.023438 85.554688 88.738281 85.550781 87.488281 C 85.53125 83.503906 85.523438 80 86.214844 77.480469 C 86.367188 76.929688 86.550781 76.425781 86.765625 75.941406 C 87.234375 74.882812 87.84375 73.925781 88.585938 72.757812 C 89.507812 71.308594 90.589844 69.613281 91.640625 67.234375 C 93.128906 63.878906 94.558594 59.167969 95.953125 54.050781 C 95.183594 53.574219 94.464844 53.175781 93.800781 52.84375 Z M 99.003906 56.277344 C 97.617188 61.304688 96.246094 65.8125 94.894531 68.941406 C 93.789062 71.496094 92.695312 73.117188 91.746094 74.527344 C 91.074219 75.527344 90.414062 76.496094 89.9375 77.601562 C 89.863281 77.773438 89.792969 77.949219 89.726562 78.128906 C 88.679688 81 88.878906 84.820312 89.046875 88.28125 C 88.535156 95.890625 88.023438 103.476562 87.519531 109.402344 C 87.015625 115.347656 86.527344 119.605469 86.015625 122.941406 C 85.546875 126.007812 85.058594 128.308594 84.5625 130.570312 L 5.203125 167.785156 C 5.691406 168.410156 6.207031 169.0625 6.730469 169.71875 L 86.113281 132.492188 C 86.453125 132.332031 86.695312 132.027344 86.777344 131.660156 C 87.316406 129.203125 87.859375 126.714844 88.382812 123.304688 C 88.90625 119.898438 89.402344 115.582031 89.90625 109.605469 C 90.414062 103.636719 90.929688 95.996094 91.441406 88.371094 L 91.441406 88.359375 C 91.445312 88.316406 91.445312 88.269531 91.445312 88.222656 C 91.265625 84.566406 91.125 81.28125 91.976562 78.953125 C 92.027344 78.816406 92.078125 78.6875 92.136719 78.554688 C 92.511719 77.691406 93.035156 76.90625 93.734375 75.867188 C 94.699219 74.433594 95.894531 72.660156 97.09375 69.894531 C 98.386719 66.902344 99.679688 62.75 100.96875 58.164062 L 100 57.230469 L 100.96875 58.160156 L 99.007812 56.277344 Z M 103.480469 60.578125 C 102.402344 65.082031 101.339844 69.097656 100.3125 71.964844 C 99.300781 74.777344 98.328125 76.46875 97.460938 77.976562 C 96.882812 78.984375 96.316406 79.964844 95.847656 81.128906 C 94.695312 84.003906 94.1875 87.894531 93.652344 93.445312 C 93.328125 96.78125 92.988281 100.785156 92.65625 104.714844 C 92.429688 107.382812 92.207031 110.019531 91.992188 112.402344 C 91.464844 118.292969 90.992188 122.597656 90.488281 125.949219 C 90.023438 129.03125 89.535156 131.320312 89.035156 133.574219 L 8.15625 171.503906 C 8.707031 172.1875 9.230469 172.839844 9.699219 173.429688 L 90.585938 135.496094 C 90.925781 135.339844 91.167969 135.03125 91.25 134.667969 C 91.792969 132.21875 92.339844 129.738281 92.855469 126.304688 C 93.371094 122.882812 93.847656 118.523438 94.378906 112.617188 C 94.59375 110.226562 94.820312 107.585938 95.042969 104.917969 C 95.378906 100.984375 95.714844 96.996094 96.035156 93.675781 C 96.582031 88.054688 97.070312 84.523438 98.070312 82.023438 C 98.464844 81.042969 98.945312 80.203125 99.539062 79.175781 C 100.425781 77.632812 101.484375 75.792969 102.566406 72.777344 C 103.523438 70.105469 104.5 66.507812 105.480469 62.496094 L 104.488281 61.542969 L 105.480469 62.496094 L 103.480469 60.574219 Z M 107.304688 64.65625 C 106.339844 68.59375 105.394531 72.085938 104.472656 74.652344 C 103.464844 77.464844 102.492188 79.15625 101.621094 80.664062 C 101.042969 81.671875 100.476562 82.652344 100.007812 83.816406 C 98.855469 86.691406 98.351562 90.582031 97.8125 96.132812 C 97.488281 99.46875 97.152344 103.46875 96.816406 107.402344 C 96.59375 110.066406 96.367188 112.714844 96.15625 115.089844 C 95.625 120.980469 95.152344 125.28125 94.648438 128.636719 C 94.1875 131.71875 93.695312 134.007812 93.199219 136.261719 L 10.828125 174.890625 C 10.917969 175.011719 11.003906 175.125 11.078125 175.230469 C 11.550781 175.882812 12 176.394531 12.585938 176.714844 L 94.75 138.183594 C 95.085938 138.023438 95.328125 137.71875 95.410156 137.355469 C 95.953125 134.90625 96.503906 132.425781 97.019531 128.992188 C 97.53125 125.570312 98.011719 121.207031 98.542969 115.304688 C 98.753906 112.921875 98.980469 110.269531 99.207031 107.605469 C 99.539062 103.667969 99.875 99.683594 100.199219 96.363281 C 100.742188 90.738281 101.230469 87.210938 102.230469 84.710938 C 102.625 83.726562 103.109375 82.886719 103.699219 81.863281 C 104.585938 80.320312 105.644531 78.480469 106.726562 75.460938 C 107.515625 73.261719 108.320312 70.425781 109.128906 67.25 C 108.648438 66.476562 108.03125 65.609375 107.304688 64.65625 Z M 144.300781 54.410156 C 143.59375 54.636719 142.820312 54.925781 141.992188 55.28125 C 142.609375 60.550781 143.320312 65.421875 144.292969 68.960938 C 144.980469 71.46875 145.796875 73.308594 146.492188 74.878906 C 147.054688 76.144531 147.511719 77.183594 147.816406 78.300781 C 147.957031 78.8125 148.066406 79.335938 148.132812 79.902344 C 148.441406 82.496094 147.914062 85.960938 147.300781 89.898438 C 147.109375 91.132812 146.914062 92.402344 146.738281 93.679688 C 146.027344 98.945312 145.742188 104.226562 145.480469 109.308594 L 145.480469 109.3125 C 145.21875 114.390625 144.976562 119.359375 144.949219 123.050781 C 144.921875 126.765625 145.109375 129.191406 145.296875 131.582031 C 145.324219 131.949219 145.519531 132.28125 145.824219 132.488281 L 216.5 179.625 C 217.117188 178.992188 217.601562 178.464844 217.863281 178.097656 C 217.933594 178 218.003906 177.898438 218.074219 177.789062 L 147.640625 130.816406 C 147.472656 128.632812 147.320312 126.386719 147.347656 123.070312 C 147.375 119.441406 147.613281 114.53125 147.875 109.4375 L 147.875 109.429688 C 148.136719 104.339844 148.417969 99.152344 149.113281 94.003906 C 149.285156 92.753906 149.476562 91.503906 149.671875 90.265625 C 150.261719 86.457031 150.867188 82.613281 150.511719 79.617188 C 150.429688 78.925781 150.296875 78.28125 150.128906 77.664062 C 149.765625 76.34375 149.230469 75.140625 148.683594 73.90625 C 147.992188 72.34375 147.238281 70.644531 146.601562 68.324219 C 145.636719 64.808594 144.933594 59.859375 144.300781 54.410156 Z M 138.640625 57.027344 L 136.421875 58.597656 L 137.515625 57.824219 L 136.421875 58.597656 C 137.011719 63.324219 137.671875 67.628906 138.507812 70.777344 C 139.277344 73.691406 140.199219 75.625 140.9375 77.183594 C 141.476562 78.316406 141.875 79.171875 142.117188 80.082031 C 142.15625 80.21875 142.1875 80.359375 142.214844 80.5 C 142.710938 82.929688 142.085938 86.15625 141.363281 89.746094 C 141.355469 89.789062 141.347656 89.835938 141.34375 89.882812 L 141.34375 89.890625 C 140.714844 97.507812 140.089844 105.140625 139.699219 111.117188 C 139.308594 117.101562 139.160156 121.445312 139.167969 124.890625 C 139.175781 128.34375 139.34375 130.882812 139.511719 133.394531 C 139.539062 133.765625 139.734375 134.105469 140.042969 134.3125 L 213 182.972656 C 213.613281 182.402344 214.222656 181.832031 214.796875 181.289062 L 141.863281 132.644531 C 141.710938 130.335938 141.570312 127.988281 141.5625 124.882812 C 141.554688 121.511719 141.703125 117.226562 142.089844 111.273438 C 142.476562 105.339844 143.101562 97.761719 143.722656 90.160156 C 144.40625 86.761719 145.175781 83.015625 144.5625 80.019531 C 144.527344 79.832031 144.480469 79.648438 144.433594 79.464844 C 144.125 78.304688 143.621094 77.246094 143.101562 76.15625 C 142.375 74.621094 141.535156 72.851562 140.824219 70.160156 C 139.949219 66.867188 139.265625 62.207031 138.640625 57.027344 Z M 133.574219 60.609375 L 131.3125 62.210938 L 132.4375 61.414062 L 131.3125 62.210938 C 131.6875 66.324219 132.117188 70.027344 132.664062 72.808594 C 133.285156 75.957031 134.058594 77.933594 134.707031 79.589844 C 135.136719 80.691406 135.488281 81.59375 135.734375 82.625 C 136.351562 85.246094 136.308594 88.808594 136.011719 94.453125 C 135.832031 97.78125 135.574219 101.773438 135.316406 105.714844 C 135.144531 108.386719 134.972656 111.035156 134.828125 113.429688 C 134.476562 119.347656 134.300781 123.730469 134.296875 127.191406 C 134.296875 130.664062 134.46875 133.199219 134.640625 135.703125 C 134.667969 136.074219 134.863281 136.410156 135.171875 136.617188 L 209.511719 186.199219 C 210.0625 185.6875 210.679688 185.117188 211.324219 184.523438 L 136.992188 134.949219 C 136.835938 132.648438 136.691406 130.308594 136.695312 127.191406 C 136.695312 123.800781 136.867188 119.476562 137.222656 113.570312 C 137.363281 111.183594 137.535156 108.542969 137.710938 105.871094 C 137.964844 101.933594 138.226562 97.925781 138.402344 94.578125 C 138.699219 89.011719 138.777344 85.089844 138.066406 82.074219 C 137.777344 80.851562 137.363281 79.796875 136.9375 78.714844 C 136.304688 77.09375 135.59375 75.277344 135.015625 72.34375 C 134.425781 69.359375 133.972656 65.226562 133.578125 60.609375 Z M 129.1875 64.074219 C 128.328125 64.90625 127.585938 65.671875 127 66.367188 C 127.324219 69.628906 127.695312 72.550781 128.148438 74.84375 C 128.769531 77.992188 129.542969 79.96875 130.191406 81.625 C 130.625 82.730469 130.976562 83.632812 131.21875 84.664062 C 131.839844 87.28125 131.792969 90.84375 131.496094 96.488281 C 131.320312 99.816406 131.058594 103.808594 130.804688 107.75 C 130.628906 110.417969 130.457031 113.074219 130.3125 115.464844 C 129.960938 121.382812 129.785156 125.765625 129.78125 129.226562 C 129.78125 132.699219 129.957031 135.234375 130.128906 137.738281 C 130.152344 138.109375 130.347656 138.445312 130.660156 138.652344 L 206.167969 189.015625 C 206.796875 188.789062 207.3125 188.347656 207.878906 187.773438 C 207.96875 187.679688 208.070312 187.578125 208.179688 187.472656 L 132.476562 136.984375 C 132.320312 134.683594 132.179688 132.34375 132.179688 129.226562 C 132.179688 125.835938 132.355469 121.511719 132.707031 115.609375 C 132.847656 113.226562 133.019531 110.574219 133.195312 107.90625 C 133.449219 103.96875 133.710938 99.964844 133.886719 96.613281 C 134.183594 91.046875 134.261719 87.125 133.550781 84.109375 C 133.261719 82.886719 132.847656 81.832031 132.425781 80.75 C 131.789062 79.132812 131.078125 77.3125 130.5 74.378906 C 129.972656 71.707031 129.554688 68.113281 129.1875 64.074219 Z M 129.1875 64.074219 "/></g><path style=" stroke:none;fill-rule:nonzero;fill:#ddb37a;fill-opacity:1;" d="M 85.648438 60.472656 L 85.691406 60.488281 L 82.84375 69.175781 L 79.5625 67.945312 Z M 71.429688 65.664062 L 78.386719 68.265625 L 73.035156 74.839844 L 65.9375 72.253906 Z M 79.089844 68.527344 L 82.621094 69.851562 L 81.710938 72.621094 L 79.824219 77.316406 L 73.742188 75.097656 Z M 65.453125 72.835938 L 72.558594 75.421875 L 67.035156 82.207031 L 59.878906 79.523438 Z M 151.226562 63.167969 L 156.128906 71.46875 L 152.707031 72.191406 L 151.179688 63.175781 Z M 51.925781 77.300781 L 58.691406 79.839844 L 52.859375 86.839844 L 46.046875 84.28125 Z M 73.265625 75.679688 L 79.558594 77.976562 L 77.371094 83.410156 C 77.367188 83.410156 77.363281 83.414062 77.359375 83.414062 C 77.269531 83.421875 77.183594 83.46875 77.121094 83.546875 L 75.65625 85.4375 L 67.738281 82.46875 Z M 77.148438 84.671875 L 77.164062 86.003906 L 76.351562 85.699219 Z M 59.398438 80.101562 L 66.5625 82.789062 L 60.828125 89.828125 L 53.566406 87.101562 Z M 164.511719 70.421875 L 168.960938 77.757812 L 161.5625 79.257812 L 157.246094 71.957031 Z M 156.511719 72.113281 L 160.824219 79.40625 L 154.476562 80.691406 L 153.3125 75.769531 L 152.824219 72.894531 Z M 45.5625 84.859375 L 52.378906 87.417969 L 46.058594 95 L 39.207031 92.40625 Z M 67.261719 83.050781 L 75.199219 86.027344 L 69.675781 93.148438 L 61.53125 90.09375 Z M 31.046875 90.078125 L 38.015625 92.71875 L 31.710938 100.207031 L 24.914062 97.675781 Z M 53.082031 87.683594 L 60.355469 90.410156 L 54.128906 98.058594 L 46.761719 95.269531 Z M 75.894531 86.289062 L 76.984375 86.695312 C 77.039062 86.71875 77.097656 86.722656 77.148438 86.71875 C 77.15625 86.714844 77.164062 86.714844 77.171875 86.714844 L 77.28125 95.527344 C 77.246094 95.519531 77.214844 95.519531 77.183594 95.523438 C 77.089844 95.535156 76.996094 95.585938 76.9375 95.671875 L 76.824219 95.828125 L 70.375 93.410156 Z M 169.355469 78.40625 L 173.871094 85.851562 L 166.394531 87.4375 L 161.945312 79.90625 Z M 38.722656 92.984375 L 45.578125 95.578125 L 39.351562 103.050781 L 32.417969 100.46875 Z M 161.207031 80.054688 L 165.660156 87.59375 L 157.390625 89.347656 L 156.222656 87.257812 C 156.171875 87.171875 156.09375 87.113281 156.003906 87.089844 C 156.003906 87.089844 156 87.085938 155.996094 87.085938 L 154.644531 81.386719 Z M 156.027344 88.367188 L 156.664062 89.5 L 155.8125 89.679688 Z M 61.058594 90.675781 L 69.222656 93.738281 L 63.207031 101.492188 L 54.832031 98.320312 Z M 24.445312 98.257812 L 31.226562 100.785156 L 25.601562 107.464844 L 19.050781 104.9375 Z M 46.28125 95.847656 L 53.65625 98.636719 L 47.574219 106.109375 L 40.058594 103.3125 Z M 69.917969 94 L 76.398438 96.429688 L 70.765625 104.355469 L 63.902344 101.757812 Z M 31.933594 101.046875 L 38.867188 103.628906 L 33.222656 110.40625 L 26.300781 107.734375 Z M 182.066406 84.84375 L 186.839844 92.621094 L 179.722656 94.132812 L 174.996094 86.339844 Z M 174.261719 86.496094 L 178.988281 94.289062 L 171.398438 95.902344 L 166.777344 88.085938 Z M 77.085938 96.6875 L 77.679688 96.910156 C 78.667969 99.21875 79.460938 101.589844 78.703125 105.078125 L 78.699219 105.078125 C 78.6875 105.09375 78.671875 105.109375 78.660156 105.128906 L 77.503906 106.90625 L 71.453125 104.613281 Z M 54.355469 98.902344 L 62.75 102.082031 L 56.925781 109.59375 L 48.277344 106.371094 Z M 166.042969 88.238281 L 170.664062 96.058594 L 162.152344 97.863281 L 157.753906 89.996094 Z M 18.582031 105.519531 L 25.117188 108.039062 L 19.386719 114.84375 L 13.046875 112.371094 Z M 157.027344 90.152344 L 161.425781 98.019531 L 154.6875 99.449219 L 154.601562 99.273438 C 154.554688 99.179688 154.472656 99.117188 154.378906 99.09375 C 154.347656 99.082031 154.316406 99.078125 154.28125 99.078125 L 155.699219 90.382812 C 155.707031 90.382812 155.714844 90.386719 155.722656 90.386719 C 155.765625 90.398438 155.808594 90.402344 155.855469 90.398438 C 155.867188 90.398438 155.878906 90.394531 155.890625 90.394531 Z M 39.574219 103.890625 L 47.097656 106.691406 L 41.480469 113.589844 L 33.921875 110.675781 Z M 63.445312 102.34375 L 70.339844 104.953125 L 64.929688 112.570312 L 57.625 109.851562 Z M 25.816406 108.3125 L 32.742188 110.980469 L 27.035156 117.828125 L 20.085938 115.117188 Z M 47.800781 106.953125 L 56.46875 110.179688 L 50.984375 117.257812 L 42.179688 113.859375 Z M 71.027344 105.214844 L 77.109375 107.515625 L 72.09375 115.238281 L 65.617188 112.828125 Z M 12.578125 112.953125 L 18.902344 115.421875 L 12.375 123.171875 L 6.277344 120.757812 Z M 187.234375 93.265625 L 192.394531 101.675781 L 185.234375 103.21875 L 180.113281 94.777344 Z M 33.441406 111.253906 L 41.007812 114.171875 L 35.378906 121.085938 L 27.734375 118.101562 Z M 179.378906 94.933594 L 184.5 103.378906 L 176.796875 105.035156 L 171.78125 96.546875 Z M 171.046875 96.703125 L 176.066406 105.195312 L 167.308594 107.078125 L 162.519531 98.511719 Z M 57.167969 110.441406 L 64.503906 113.171875 L 59.316406 120.472656 L 51.675781 117.523438 Z M 161.789062 98.667969 L 166.582031 107.238281 L 159.410156 108.78125 L 155.019531 100.105469 Z M 154.300781 100.257812 L 158.691406 108.9375 L 152.367188 110.296875 L 151.488281 108.367188 C 151.480469 108.347656 151.46875 108.328125 151.457031 108.3125 L 151.453125 108.3125 C 151.222656 104.753906 152.363281 102.523438 153.679688 100.390625 Z M 19.601562 115.691406 L 26.554688 118.40625 L 20.050781 126.210938 L 13.074219 123.445312 Z M 41.707031 114.441406 L 50.527344 117.84375 L 45.082031 124.871094 L 36.074219 121.355469 Z M 65.191406 113.429688 L 71.695312 115.847656 L 66.8125 123.363281 L 60 120.734375 Z M 27.253906 118.679688 L 34.90625 121.664062 L 28.488281 129.550781 L 20.75 126.484375 Z M 77.980469 107.523438 C 77.097656 109.984375 75.726562 112.761719 74.476562 115.300781 C 73.621094 117.03125 72.824219 118.652344 72.289062 119.957031 C 71.128906 122.796875 71.214844 124.183594 71.621094 125.21875 L 67.492188 123.625 L 72.378906 116.101562 L 73.460938 116.507812 C 73.515625 116.527344 73.574219 116.53125 73.628906 116.527344 C 73.757812 116.511719 73.871094 116.425781 73.917969 116.296875 C 73.988281 116.113281 73.894531 115.910156 73.710938 115.839844 L 72.773438 115.492188 L 77.878906 107.636719 L 77.875 107.636719 C 77.917969 107.609375 77.953125 107.570312 77.980469 107.523438 Z M 200.808594 100.59375 L 205.742188 109.019531 L 198.644531 110.507812 L 193.523438 102.160156 Z M 192.789062 102.320312 L 197.90625 110.660156 L 190.667969 112.179688 L 185.625 103.863281 Z M 51.222656 118.109375 L 58.890625 121.070312 L 53.777344 128.265625 L 45.769531 125.140625 Z M 184.886719 104.023438 L 189.929688 112.332031 L 182.082031 113.976562 L 177.179688 105.683594 Z M 12.589844 124.019531 L 19.574219 126.785156 L 13.660156 133.878906 L 6.5625 131.179688 Z M 176.445312 105.839844 L 181.347656 114.132812 L 172.3125 116.027344 L 167.671875 107.730469 Z M 67.09375 124.234375 L 71.503906 125.933594 L 63.789062 129.324219 Z M 166.945312 107.886719 L 171.585938 116.179688 L 163.957031 117.777344 L 159.742188 109.4375 Z M 159.023438 109.59375 L 163.238281 117.929688 L 156.476562 119.34375 L 152.667969 110.960938 Z M 59.574219 121.332031 L 66.417969 123.972656 L 62.613281 129.828125 C 62.609375 129.832031 62.605469 129.839844 62.601562 129.84375 L 60.355469 130.832031 L 54.460938 128.53125 Z M 35.601562 121.9375 L 44.625 125.457031 L 38.40625 133.476562 L 29.179688 129.824219 Z M 20.269531 127.0625 L 28.015625 130.128906 L 22.289062 137.164062 L 14.363281 134.148438 Z M 54.035156 129.128906 L 59.4375 131.234375 L 49.410156 135.636719 Z M 45.316406 125.726562 L 53.351562 128.863281 L 48.320312 135.945312 C 48.277344 136.003906 48.257812 136.074219 48.257812 136.144531 L 48.253906 136.148438 L 46.785156 136.792969 C 46.785156 136.792969 46.78125 136.792969 46.78125 136.789062 L 39.097656 133.75 Z M 206.121094 109.667969 L 210.460938 117.074219 L 203.609375 118.597656 L 199.039062 111.152344 Z M 198.300781 111.304688 L 202.875 118.761719 L 195.632812 120.367188 L 191.058594 112.824219 Z M 190.320312 112.980469 L 194.898438 120.53125 L 186.992188 122.285156 L 182.464844 114.625 Z M 28.710938 130.402344 L 37.953125 134.0625 L 32.527344 141.058594 L 22.988281 137.429688 Z M 181.730469 114.777344 L 186.261719 122.445312 L 177.050781 124.492188 L 172.679688 116.675781 Z M 38.640625 134.332031 L 45.867188 137.195312 L 34.957031 141.988281 C 34.9375 141.976562 34.921875 141.96875 34.902344 141.960938 L 33.222656 141.324219 Z M 171.949219 116.828125 L 176.324219 124.652344 L 168.332031 126.425781 L 164.289062 118.433594 Z M 13.882812 134.726562 L 21.816406 137.742188 L 16.457031 144.324219 L 8.367188 141.34375 Z M 163.570312 118.585938 L 167.617188 126.585938 L 160.488281 128.167969 L 156.78125 120.007812 Z M 32.765625 141.910156 L 34.035156 142.390625 L 31.546875 143.484375 Z M 151.804688 110.839844 C 151.824219 110.886719 151.855469 110.933594 151.890625 110.96875 L 151.886719 110.96875 L 155.765625 119.496094 L 154.789062 119.699219 C 154.597656 119.738281 154.472656 119.929688 154.511719 120.121094 C 154.542969 120.253906 154.644531 120.355469 154.769531 120.390625 C 154.808594 120.402344 154.855469 120.40625 154.902344 120.402344 C 154.914062 120.398438 154.921875 120.398438 154.933594 120.394531 L 156.066406 120.160156 L 159.777344 128.324219 L 155.457031 129.285156 C 156.011719 128.320312 156.308594 126.964844 155.582031 123.980469 C 155.246094 122.613281 154.699219 120.890625 154.109375 119.050781 C 153.25 116.355469 152.308594 113.402344 151.804688 110.839844 Z M 22.515625 138.011719 L 32.070312 141.644531 L 30.183594 144.085938 L 23.625 146.964844 L 17.164062 144.582031 Z M 210.835938 117.722656 L 215.289062 125.324219 L 208.652344 126.824219 L 204 119.238281 Z M 203.265625 119.402344 L 207.921875 126.988281 L 200.644531 128.632812 L 196.023438 121.007812 Z M 195.289062 121.171875 L 199.914062 128.796875 L 191.910156 130.605469 L 187.375 122.929688 Z M 160.082031 128.988281 L 162.589844 134.511719 L 155.46875 130.011719 Z M 16.6875 145.167969 L 22.6875 147.375 L 10.96875 152.523438 C 10.933594 152.464844 10.878906 152.414062 10.8125 152.382812 Z M 186.644531 123.089844 L 191.183594 130.769531 L 181.753906 132.902344 L 177.414062 125.140625 Z M 176.6875 125.300781 L 181.03125 133.066406 L 172.648438 134.957031 L 168.664062 127.082031 Z M 167.949219 127.242188 L 171.933594 135.121094 L 165.761719 136.515625 L 163.6875 135.207031 L 163.6875 135.203125 C 163.683594 135.199219 163.683594 135.191406 163.679688 135.1875 L 160.789062 128.828125 Z M 89.296875 52.71875 C 89.160156 52.734375 89.046875 52.828125 89.003906 52.953125 L 86.402344 58.589844 C 86.398438 58.589844 86.398438 58.589844 86.394531 58.589844 C 86.304688 58.601562 86.21875 58.644531 86.160156 58.71875 L 85.414062 59.636719 L 80.386719 57.890625 C 80.332031 57.871094 80.28125 57.867188 80.226562 57.871094 C 80.097656 57.886719 79.980469 57.976562 79.933594 58.109375 C 79.867188 58.292969 79.96875 58.496094 80.152344 58.5625 L 84.933594 60.222656 L 78.859375 67.683594 L 71.914062 65.082031 L 74.574219 61.890625 C 74.699219 61.742188 74.679688 61.515625 74.527344 61.390625 C 74.449219 61.324219 74.351562 61.300781 74.257812 61.308594 C 74.171875 61.320312 74.089844 61.363281 74.027344 61.4375 L 71.207031 64.820312 L 70.105469 64.40625 C 70.050781 64.386719 69.996094 64.378906 69.941406 64.386719 C 69.8125 64.402344 69.699219 64.484375 69.648438 64.617188 C 69.582031 64.800781 69.671875 65.003906 69.859375 65.074219 L 70.726562 65.398438 L 65.230469 71.996094 L 60.109375 70.128906 C 60.054688 70.109375 60 70.101562 59.945312 70.109375 C 59.816406 70.125 59.703125 70.210938 59.652344 70.339844 C 59.585938 70.527344 59.679688 70.730469 59.867188 70.796875 L 64.746094 72.574219 L 59.175781 79.261719 L 52.410156 76.722656 L 55.101562 73.53125 C 55.226562 73.382812 55.207031 73.15625 55.058594 73.03125 C 54.980469 72.964844 54.882812 72.9375 54.785156 72.949219 C 54.699219 72.960938 54.617188 73 54.554688 73.074219 L 51.707031 76.460938 L 50.285156 75.925781 C 50.230469 75.90625 50.171875 75.898438 50.117188 75.90625 C 49.988281 75.921875 49.875 76.003906 49.824219 76.136719 C 49.757812 76.320312 49.851562 76.523438 50.035156 76.59375 L 51.21875 77.035156 L 45.339844 84.019531 L 41.664062 82.636719 C 41.609375 82.617188 41.550781 82.609375 41.496094 82.617188 C 41.367188 82.632812 41.253906 82.71875 41.207031 82.847656 C 41.136719 83.03125 41.230469 83.234375 41.414062 83.304688 L 44.855469 84.59375 L 38.503906 92.140625 L 31.519531 89.496094 L 33.695312 86.800781 C 33.820312 86.648438 33.796875 86.421875 33.644531 86.300781 C 33.566406 86.238281 33.46875 86.210938 33.378906 86.222656 C 33.289062 86.234375 33.203125 86.277344 33.144531 86.351562 L 30.816406 89.230469 L 29.601562 88.773438 C 29.546875 88.75 29.492188 88.746094 29.4375 88.75 C 29.308594 88.765625 29.195312 88.851562 29.144531 88.980469 C 29.074219 89.164062 29.167969 89.367188 29.351562 89.4375 L 30.347656 89.816406 L 24.210938 97.414062 L 18.949219 95.453125 C 18.894531 95.433594 18.835938 95.429688 18.785156 95.433594 C 18.65625 95.449219 18.539062 95.535156 18.492188 95.664062 C 18.421875 95.847656 18.515625 96.050781 18.699219 96.121094 L 23.742188 97.996094 L 18.355469 104.667969 L 11.214844 101.914062 L 13.679688 98.90625 C 13.804688 98.753906 13.78125 98.53125 13.632812 98.40625 C 13.554688 98.34375 13.457031 98.316406 13.363281 98.328125 C 13.277344 98.335938 13.191406 98.382812 13.132812 98.457031 L 10.515625 101.644531 L 9.3125 101.183594 C 9.257812 101.160156 9.199219 101.152344 9.144531 101.160156 C 9.019531 101.175781 8.902344 101.257812 8.855469 101.386719 C 8.785156 101.570312 8.875 101.773438 9.058594 101.84375 L 10.042969 102.226562 L 7.371094 105.488281 C 7.246094 105.640625 7.265625 105.863281 7.417969 105.988281 C 7.496094 106.054688 7.59375 106.078125 7.6875 106.066406 C 7.773438 106.058594 7.859375 106.015625 7.917969 105.941406 L 10.742188 102.496094 L 17.882812 105.25 L 12.355469 112.101562 L 6.925781 109.984375 C 6.871094 109.960938 6.8125 109.957031 6.753906 109.960938 C 6.628906 109.976562 6.515625 110.058594 6.464844 110.1875 C 6.394531 110.371094 6.484375 110.574219 6.667969 110.648438 L 11.882812 112.683594 L 5.585938 120.484375 L 3.984375 119.851562 C 3.929688 119.828125 3.871094 119.820312 3.8125 119.828125 C 3.6875 119.839844 3.574219 119.921875 3.523438 120.050781 C 3.453125 120.230469 3.539062 120.4375 3.722656 120.511719 L 5.117188 121.0625 L 3.429688 123.152344 C 3.308594 123.304688 3.332031 123.527344 3.484375 123.652344 C 3.5625 123.714844 3.65625 123.738281 3.75 123.730469 C 3.839844 123.71875 3.921875 123.675781 3.984375 123.597656 L 5.808594 121.335938 L 11.890625 123.746094 L 5.859375 130.910156 L 2.4375 129.609375 C 2.378906 129.585938 2.324219 129.582031 2.269531 129.585938 C 2.140625 129.601562 2.027344 129.6875 1.976562 129.816406 C 1.90625 130 2 130.203125 2.183594 130.273438 L 5.375 131.488281 L 1.90625 135.605469 C 1.777344 135.757812 1.796875 135.980469 1.949219 136.109375 C 2.027344 136.175781 2.125 136.199219 2.21875 136.191406 C 2.304688 136.179688 2.386719 136.136719 2.449219 136.066406 L 6.078125 131.753906 L 13.179688 134.457031 L 7.660156 141.082031 L 2.742188 139.269531 C 2.6875 139.25 2.632812 139.242188 2.578125 139.25 C 2.449219 139.265625 2.332031 139.351562 2.285156 139.480469 C 2.21875 139.664062 2.3125 139.871094 2.496094 139.9375 L 7.175781 141.660156 L 1.753906 148.171875 C 1.625 148.324219 1.648438 148.546875 1.796875 148.671875 C 1.875 148.738281 1.972656 148.765625 2.066406 148.753906 C 2.152344 148.742188 2.238281 148.703125 2.296875 148.628906 L 7.886719 141.921875 L 15.984375 144.90625 L 10.097656 152.136719 L 2.210938 149.410156 C 2.15625 149.394531 2.105469 149.386719 2.054688 149.394531 C 1.921875 149.410156 1.804688 149.496094 1.757812 149.632812 C 1.695312 149.816406 1.792969 150.019531 1.976562 150.082031 L 9.621094 152.722656 L 9.464844 152.914062 C 9.390625 153 9.367188 153.113281 9.390625 153.21875 L 2.144531 156.398438 C 1.964844 156.480469 1.882812 156.6875 1.960938 156.867188 C 2.023438 157.015625 2.175781 157.097656 2.328125 157.078125 C 2.359375 157.074219 2.394531 157.066406 2.429688 157.050781 L 72.515625 126.265625 C 72.609375 126.226562 72.679688 126.148438 72.710938 126.054688 C 72.742188 125.957031 72.734375 125.855469 72.683594 125.765625 C 72.121094 124.75 71.503906 123.753906 72.945312 120.226562 C 73.46875 118.949219 74.253906 117.355469 75.113281 115.617188 C 76.660156 112.480469 78.441406 108.878906 79.214844 105.972656 C 80.425781 101.441406 79.203125 98.597656 77.996094 95.855469 L 77.851562 84.121094 L 82.375 72.875 L 82.382812 72.855469 L 86.761719 59.515625 L 89.660156 53.222656 C 89.6875 53.164062 89.699219 53.097656 89.691406 53.03125 C 89.667969 52.835938 89.492188 52.695312 89.296875 52.71875 Z M 215.664062 125.96875 L 220.734375 134.625 L 214.347656 136.101562 L 209.046875 127.464844 Z M 208.3125 127.628906 L 213.617188 136.269531 L 206.304688 137.960938 L 201.035156 129.273438 Z M 200.304688 129.4375 L 205.574219 138.128906 L 197.464844 140.003906 L 192.289062 131.25 Z M 172.265625 135.773438 L 175.871094 142.902344 L 166.613281 137.050781 Z M 191.5625 131.414062 L 196.738281 140.171875 L 187.070312 142.40625 L 182.117188 133.546875 Z M 181.394531 133.710938 L 186.351562 142.574219 L 178.296875 144.433594 C 178.296875 144.433594 178.296875 144.433594 178.292969 144.433594 L 176.9375 143.578125 L 176.933594 143.578125 C 176.945312 143.507812 176.933594 143.433594 176.902344 143.367188 L 172.980469 135.613281 Z M 214.007812 136.910156 L 218.902344 144.886719 L 211.480469 146.5 L 206.691406 138.601562 Z M 205.960938 138.769531 L 210.746094 146.660156 L 202.460938 148.457031 L 197.84375 140.644531 Z M 197.117188 140.8125 L 201.730469 148.617188 L 191.757812 150.78125 L 187.433594 143.054688 Z M 186.710938 143.21875 L 191.03125 150.941406 L 189.277344 151.320312 C 189.253906 151.324219 189.234375 151.332031 189.21875 151.339844 L 179.140625 144.96875 Z M 191.394531 151.589844 L 192.367188 153.328125 L 190.070312 151.875 Z M 211.136719 147.300781 L 215.605469 154.667969 L 207.160156 156.40625 L 202.84375 149.101562 Z M 202.109375 149.261719 L 206.425781 156.558594 L 199.679688 157.949219 L 193.625 154.125 L 192.121094 151.429688 Z M 206.808594 157.207031 L 211.542969 165.222656 C 211.472656 165.242188 211.410156 165.28125 211.367188 165.335938 L 200.546875 158.496094 Z M 148.636719 54.945312 C 148.496094 54.964844 148.375 55.0625 148.335938 55.207031 C 148.316406 55.269531 148.320312 55.335938 148.335938 55.398438 L 150.269531 62.054688 L 152.613281 75.898438 L 152.617188 75.921875 L 155.414062 87.714844 L 153.527344 99.296875 C 151.925781 101.832031 150.292969 104.457031 150.8125 109.121094 C 151.148438 112.109375 152.371094 115.9375 153.433594 119.269531 C 154.023438 121.117188 154.566406 122.808594 154.890625 124.148438 C 155.792969 127.855469 155.035156 128.75 154.324219 129.667969 C 154.261719 129.746094 154.238281 129.847656 154.253906 129.949219 C 154.273438 130.046875 154.332031 130.132812 154.414062 130.1875 L 219.140625 171.089844 C 219.167969 171.109375 219.203125 171.121094 219.234375 171.128906 C 219.28125 171.144531 219.324219 171.144531 219.371094 171.140625 C 219.472656 171.128906 219.570312 171.070312 219.628906 170.976562 C 219.734375 170.8125 219.683594 170.589844 219.519531 170.488281 L 212.828125 166.257812 L 212.824219 166.257812 C 212.863281 166.160156 212.855469 166.042969 212.796875 165.945312 L 212.671875 165.734375 L 220.621094 164.265625 C 220.8125 164.230469 220.941406 164.042969 220.90625 163.851562 C 220.878906 163.710938 220.777344 163.605469 220.648438 163.570312 C 220.605469 163.558594 220.5625 163.554688 220.515625 163.5625 C 220.507812 163.5625 220.5 163.5625 220.492188 163.566406 L 212.289062 165.082031 L 207.542969 157.054688 L 215.996094 155.3125 L 220.523438 162.777344 C 220.570312 162.859375 220.648438 162.914062 220.734375 162.9375 C 220.777344 162.949219 220.820312 162.953125 220.867188 162.945312 C 220.917969 162.941406 220.964844 162.925781 221.011719 162.898438 C 221.179688 162.796875 221.230469 162.578125 221.128906 162.410156 L 216.734375 155.160156 L 221.621094 154.15625 C 221.8125 154.113281 221.933594 153.925781 221.894531 153.734375 C 221.867188 153.597656 221.765625 153.496094 221.640625 153.460938 C 221.597656 153.449219 221.550781 153.445312 221.507812 153.453125 C 221.496094 153.453125 221.484375 153.457031 221.476562 153.457031 L 216.34375 154.515625 L 211.871094 147.140625 L 219.296875 145.53125 L 222.242188 150.332031 C 222.292969 150.414062 222.367188 150.46875 222.453125 150.492188 C 222.496094 150.503906 222.542969 150.507812 222.585938 150.5 C 222.636719 150.496094 222.6875 150.480469 222.730469 150.449219 C 222.898438 150.347656 222.953125 150.128906 222.847656 149.960938 L 220.03125 145.371094 L 223.367188 144.644531 C 223.558594 144.605469 223.679688 144.414062 223.640625 144.222656 C 223.609375 144.089844 223.507812 143.988281 223.386719 143.953125 C 223.34375 143.941406 223.296875 143.9375 223.25 143.945312 C 223.242188 143.945312 223.230469 143.949219 223.21875 143.949219 L 219.636719 144.726562 L 214.738281 136.742188 L 221.113281 135.269531 L 222.582031 137.777344 C 222.628906 137.859375 222.707031 137.917969 222.792969 137.941406 C 222.835938 137.953125 222.882812 137.957031 222.929688 137.949219 C 222.976562 137.945312 223.023438 137.929688 223.066406 137.902344 C 223.234375 137.804688 223.292969 137.585938 223.195312 137.417969 L 221.835938 135.101562 L 223.296875 134.761719 C 223.488281 134.71875 223.609375 134.527344 223.566406 134.335938 C 223.535156 134.203125 223.433594 134.105469 223.3125 134.074219 C 223.269531 134.0625 223.222656 134.058594 223.175781 134.0625 C 223.164062 134.0625 223.152344 134.066406 223.136719 134.070312 L 221.460938 134.457031 L 216.394531 125.804688 L 221.855469 124.570312 C 222.046875 124.527344 222.167969 124.335938 222.125 124.144531 C 222.09375 124.011719 221.992188 123.910156 221.871094 123.878906 C 221.828125 123.867188 221.78125 123.863281 221.734375 123.867188 C 221.722656 123.871094 221.710938 123.871094 221.699219 123.875 L 216.015625 125.160156 L 211.566406 117.558594 L 219.039062 115.898438 L 221.316406 119.726562 C 221.367188 119.808594 221.445312 119.867188 221.53125 119.890625 C 221.574219 119.902344 221.621094 119.90625 221.664062 119.898438 C 221.714844 119.894531 221.761719 119.878906 221.804688 119.851562 C 221.972656 119.75 222.027344 119.53125 221.929688 119.363281 L 219.769531 115.738281 L 220.800781 115.507812 C 220.992188 115.46875 221.113281 115.277344 221.070312 115.085938 C 221.042969 114.953125 220.941406 114.851562 220.816406 114.820312 C 220.777344 114.808594 220.730469 114.804688 220.683594 114.808594 C 220.671875 114.808594 220.660156 114.8125 220.648438 114.816406 L 219.386719 115.09375 L 217.277344 111.550781 C 217.230469 111.464844 217.152344 111.410156 217.066406 111.386719 C 217.023438 111.375 216.976562 111.371094 216.933594 111.378906 C 216.882812 111.382812 216.835938 111.398438 216.792969 111.425781 C 216.625 111.527344 216.566406 111.746094 216.667969 111.914062 L 218.65625 115.257812 L 211.1875 116.914062 L 206.855469 109.511719 L 212.117188 108.410156 C 212.3125 108.371094 212.433594 108.179688 212.394531 107.988281 C 212.367188 107.851562 212.261719 107.753906 212.140625 107.71875 C 212.097656 107.707031 212.050781 107.703125 212.003906 107.707031 C 211.996094 107.710938 211.984375 107.710938 211.972656 107.714844 L 206.476562 108.867188 L 201.539062 100.4375 L 202.582031 100.210938 C 202.773438 100.171875 202.894531 99.980469 202.855469 99.789062 C 202.824219 99.65625 202.722656 99.554688 202.601562 99.519531 C 202.558594 99.507812 202.511719 99.503906 202.464844 99.511719 C 202.453125 99.511719 202.441406 99.511719 202.433594 99.515625 L 201.160156 99.789062 L 199.292969 96.59375 C 199.242188 96.511719 199.164062 96.457031 199.078125 96.433594 C 199.035156 96.417969 198.988281 96.417969 198.945312 96.421875 C 198.894531 96.425781 198.847656 96.441406 198.804688 96.46875 C 198.636719 96.566406 198.578125 96.785156 198.679688 96.953125 L 200.429688 99.945312 L 193.128906 101.519531 L 187.972656 93.109375 L 191.566406 92.347656 C 191.757812 92.304688 191.882812 92.117188 191.839844 91.925781 C 191.8125 91.789062 191.710938 91.6875 191.585938 91.65625 C 191.542969 91.644531 191.5 91.640625 191.453125 91.644531 C 191.441406 91.644531 191.429688 91.648438 191.421875 91.652344 L 187.578125 92.464844 L 182.804688 84.6875 L 184.042969 84.421875 C 184.234375 84.382812 184.355469 84.195312 184.316406 84 C 184.289062 83.867188 184.1875 83.765625 184.0625 83.730469 C 184.019531 83.71875 183.972656 83.714844 183.929688 83.722656 C 183.917969 83.722656 183.90625 83.726562 183.894531 83.726562 L 182.410156 84.042969 L 180.09375 80.269531 C 180.046875 80.1875 179.96875 80.132812 179.886719 80.113281 C 179.839844 80.101562 179.796875 80.097656 179.75 80.101562 C 179.699219 80.105469 179.652344 80.125 179.605469 80.152344 C 179.4375 80.253906 179.386719 80.472656 179.488281 80.640625 L 181.671875 84.199219 L 174.605469 85.695312 L 170.09375 78.257812 L 175.183594 77.226562 C 175.375 77.1875 175.5 77 175.460938 76.804688 C 175.433594 76.671875 175.332031 76.566406 175.207031 76.535156 C 175.164062 76.523438 175.117188 76.519531 175.070312 76.523438 C 175.0625 76.523438 175.050781 76.527344 175.042969 76.527344 L 169.703125 77.609375 L 165.25 70.265625 L 166.15625 70.074219 C 166.347656 70.035156 166.46875 69.84375 166.429688 69.652344 C 166.402344 69.519531 166.300781 69.417969 166.175781 69.382812 C 166.132812 69.371094 166.085938 69.367188 166.039062 69.375 C 166.03125 69.375 166.019531 69.375 166.007812 69.378906 L 164.859375 69.621094 L 162.574219 65.855469 C 162.523438 65.773438 162.449219 65.71875 162.363281 65.695312 C 162.320312 65.683594 162.273438 65.679688 162.226562 65.6875 C 162.179688 65.691406 162.128906 65.707031 162.085938 65.734375 C 161.917969 65.839844 161.863281 66.058594 161.964844 66.226562 L 164.121094 69.777344 L 156.863281 71.3125 L 151.96875 63.03125 L 156.945312 62.097656 C 157.136719 62.0625 157.265625 61.878906 157.226562 61.683594 C 157.203125 61.546875 157.101562 61.441406 156.972656 61.40625 C 156.929688 61.394531 156.882812 61.390625 156.839844 61.394531 C 156.832031 61.398438 156.820312 61.398438 156.8125 61.398438 L 151.582031 62.378906 L 150.980469 61.359375 C 150.933594 61.277344 150.855469 61.21875 150.769531 61.195312 C 150.765625 61.195312 150.761719 61.195312 150.757812 61.195312 L 149.027344 55.230469 C 149 55.101562 148.90625 54.992188 148.773438 54.957031 C 148.726562 54.945312 148.679688 54.941406 148.636719 54.945312 Z M 148.636719 54.945312 "/></g></svg>